# xmcd
# 
# Track frame offsets:
#     150
#     16390
#     33937
#     50820
#     68102
#     85812
#     98775
#     117820
#     130690
#     147265
#     164972
#     181005
#     200725
#     215030
#     231532
#     246465
#     258485
#     278087
#     293762
#     313227
# 
# Disc length: 4394
# 
# Revision: 14
# Processed by: cddbd v1.5.2PL0 Copyright (c) Steve Scherf et al.
# Submitted via: fre:ac v1.0.31
# 
DISCID=39112814
DTITLE=Various Artist - Twenty Greatest Hits
DYEAR=1983
DGENRE=Folk/Country
TTITLE0=Kenny Rogers - Lucille
TTITLE1=Kenny Rogers - Lady
TTITLE2=Kenny Rogers - Love Lifted Me
TTITLE3=Kenny Rogers and Sheena Easton - We've Got Tonight
TTITLE4=Kenny Rogers - Scarlet Fever
TTITLE5=Kenny Rogers - Love or Something Like It
TTITLE6=Kenny Rogers - She Believes in Me
TTITLE7=Kenny Rogers - Ruby Don't Take Your Love to Town
TTITLE8=Kenny Rogers and Kim Carnes - Don't Fall in Love with a Dreamer
TTITLE9=Kenny Rogers - You Were a Good Friend
TTITLE10=Kenny Rogers - The Gambler
TTITLE11=Kenny Rogers - Through the Years
TTITLE12=Kenny Rogers - Daytime Friends
TTITLE13=Kenny Rogers - You Decorated My Life
TTITLE14=Kenny Rogers and Dottie West - 'Till I Can Make It on My Own
TTITLE15=Kenny Rogers - Reuben James
TTITLE16=Kenny Rogers - Coward of the County
TTITLE17=Kenny Rogers - I Don't Need You
TTITLE18=Kenny Rogers - Something's Burning
TTITLE19=Kenny Rogers - Love Will Turn You Around
EXTD=YEAR: 1983
EXTT0=
EXTT1=
EXTT2=
EXTT3=
EXTT4=
EXTT5=
EXTT6=
EXTT7=
EXTT8=
EXTT9=
EXTT10=
EXTT11=
EXTT12=
EXTT13=
EXTT14=
EXTT15=
EXTT16=
EXTT17=
EXTT18=
EXTT19=
PLAYORDER=
